HIERARCHY
ROOT Hips
{
 OFFSET 0.000000 0.000000 0.000000
 CHANNELS 6 Xposition Yposition Zposition Yrotation Xrotation Zrotation
 JOINT Chest
 {
  OFFSET 0.000000 9.585900 0.002600
  CHANNELS 3 Yrotation Xrotation Zrotation
  JOINT Chest2
  {
   OFFSET 0.000000 9.601200 -0.005300
   CHANNELS 3 Yrotation Xrotation Zrotation
   JOINT Chest3
   {
    OFFSET 0.000000 9.561800 0.000000
    CHANNELS 3 Yrotation Xrotation Zrotation
    JOINT Chest4
    {
     OFFSET 0.000000 9.552100 0.000000
     CHANNELS 3 Yrotation Xrotation Zrotation
     JOINT Neck
     {
      OFFSET 0.000000 14.453000 0.000000
      CHANNELS 3 Yrotation Xrotation Zrotation
      JOINT Head
      {
       OFFSET 0.000000 8.936500 -0.011300
       CHANNELS 3 Yrotation Xrotation Zrotation
       End Site
       {
        OFFSET 0.000000 17.073600 -0.006000
       }
      }
     }
     JOINT RightCollar
     {
      OFFSET -2.921100 9.558500 0.000000
      CHANNELS 3 Yrotation Xrotation Zrotation
      JOINT RightShoulder
      {
       OFFSET -13.519700 0.000000 0.000000
       CHANNELS 3 Yrotation Xrotation Zrotation
       JOINT RightElbow
       {
        OFFSET 0.000000 -29.696600 0.000000
        CHANNELS 3 Yrotation Xrotation Zrotation
        JOINT RightWrist
        {
         OFFSET 0.000000 -24.004700 0.000000
         CHANNELS 3 Yrotation Xrotation Zrotation
         End Site
         {
          OFFSET 0.000000 -17.728500 0.000000
         }
        }
       }
      }
     }
     JOINT LeftCollar
     {
      OFFSET 2.921100 9.558500 0.000000
      CHANNELS 3 Yrotation Xrotation Zrotation
      JOINT LeftShoulder
      {
       OFFSET 13.519700 0.000000 0.000000
       CHANNELS 3 Yrotation Xrotation Zrotation
       JOINT LeftElbow
       {
        OFFSET 0.000000 -29.696600 0.000000
        CHANNELS 3 Yrotation Xrotation Zrotation
        JOINT LeftWrist
        {
         OFFSET 0.000000 -24.004700 0.000000
         CHANNELS 3 Yrotation Xrotation Zrotation
         End Site
         {
          OFFSET 0.000000 -17.728500 0.000000
         }
        }
       }
      }
     }
    }
   }
  }
 }
 JOINT RightHip
 {
  OFFSET -7.771700 -0.012900 -0.001300
  CHANNELS 3 Yrotation Xrotation Zrotation
  JOINT RightKnee
  {
   OFFSET 0.000000 -40.869800 0.001200
   CHANNELS 3 Yrotation Xrotation Zrotation
   JOINT RightAnkle
   {
    OFFSET 0.000000 -39.717900 0.002100
    CHANNELS 3 Yrotation Xrotation Zrotation
    JOINT RightToe
    {
     OFFSET 0.000000 -4.965400 11.033500
     CHANNELS 3 Yrotation Xrotation Zrotation
     End Site
     {
      OFFSET 0.000000 -1.423100 5.872300
     }
    }
   }
  }
 }
 JOINT LeftHip
 {
  OFFSET 7.771700 -0.012900 -0.001300
  CHANNELS 3 Yrotation Xrotation Zrotation
  JOINT LeftKnee
  {
   OFFSET 0.000000 -40.869800 0.001200
   CHANNELS 3 Yrotation Xrotation Zrotation
   JOINT LeftAnkle
   {
    OFFSET 0.000000 -39.717900 0.002100
    CHANNELS 3 Yrotation Xrotation Zrotation
    JOINT LeftToe
    {
     OFFSET 0.000000 -4.965400 11.033500
     CHANNELS 3 Yrotation Xrotation Zrotation
     End Site
     {
      OFFSET 0.000000 -1.423100 5.872300
     }
    }
   }
  }
 }
}
MOTION
Frames: 11
Frame Time: 0.008333
-102.017664 57.085999 -1.623333 162.082147 -10.320201 -1.043431 0.123595 12.328645 1.859471 0.043765 0.931174 0.062366 0.075330 1.589555 0.106942 0.606694 11.292007 0.814592 -1.227990 17.155006 -0.352349 -2.149179 -3.934181 -0.233155 -0.208314 8.412760 -0.897330 -14.479844 -20.566279 -12.096338 -139.782865 -62.317498 172.936644 -6.598518 -6.050410 -19.368352 -7.034646 7.453178 -2.757106 11.937624 -9.048012 6.833837 153.133955 -83.801780 -178.369590 -7.962333 10.183412 -2.481962 -9.451358 -62.153591 8.052140 -39.778303 69.826999 -44.781213 -3.440120 -5.130968 3.027370 0.135864 0.634991 -0.328700 -6.222302 -64.788891 16.542702 44.495100 60.793587 39.692820 -16.716903 -9.858587 2.859413 -0.236178 -1.045559 -0.904488
-101.955188 57.085973 -1.607997 162.204557 -10.250933 -1.047183 0.392037 12.355407 2.015736 0.061775 0.937577 0.066249 0.106049 1.600122 0.113748 0.828008 11.316678 0.878512 -1.370656 17.116458 -0.315723 -2.425636 -4.003701 -0.116217 0.051973 8.319590 -0.737881 -14.016902 -21.043133 -12.580621 -139.592045 -63.138118 171.835828 -6.681081 -6.101104 -19.418818 -7.101688 7.307584 -2.780269 11.357346 -9.481006 7.011532 152.497265 -84.024793 -177.921819 -7.962013 10.155729 -2.485849 -10.047027 -62.168633 8.255853 -39.884689 69.783965 -44.834812 -3.042700 -5.186426 3.033964 0.014041 0.663132 -0.432842 -6.891412 -64.817275 16.767017 44.837658 60.552845 40.220059 -16.824107 -9.808308 2.740223 -0.095305 -1.081560 -0.917848
-101.889249 57.085068 -1.594098 162.293717 -10.189178 -1.046212 0.680473 12.394502 2.171594 0.080490 0.945608 0.070421 0.138073 1.613306 0.121007 1.055831 11.346936 0.945329 -1.502363 17.076390 -0.288307 -2.678881 -4.076029 -0.019856 0.389141 8.213390 -0.565215 -13.427430 -21.633543 -13.073488 -139.141211 -64.111246 170.331136 -6.798659 -6.161689 -19.468333 -7.164485 7.153613 -2.804526 10.796293 -9.915291 7.175493 151.804056 -84.247722 -177.441072 -7.958821 10.124238 -2.510437 -10.589995 -62.180091 8.438695 -39.996533 69.740680 -44.888906 -2.621051 -5.225504 3.069448 -0.120356 0.684722 -0.549107 -7.558847 -64.829401 17.033730 45.209653 60.308311 40.766491 -16.977778 -9.782495 2.614855 0.060305 -1.106464 -0.915786
-101.817694 57.083364 -1.581036 162.339824 -10.135611 -1.057549 0.986699 12.445606 2.342878 0.099305 0.955460 0.074857 0.170185 1.629426 0.128677 1.281050 11.384158 1.013479 -1.617366 17.034397 -0.273955 -2.897020 -4.152146 0.046821 0.818640 8.077519 -0.388755 -12.719693 -22.344676 -13.566788 -138.227270 -65.255057 168.248724 -6.965721 -6.233015 -19.517832 -7.210997 6.982455 -2.836864 10.275999 -10.332625 7.328692 150.851501 -84.468834 -176.730578 -7.951817 10.086388 -2.553894 -11.103759 -62.185459 8.640530 -40.121800 69.695060 -44.950552 -2.171754 -5.237176 3.136697 -0.273062 0.689061 -0.679779 -8.241959 -64.822833 17.373642 45.577715 60.064643 41.301784 -17.132334 -9.776369 2.487875 0.218165 -1.119266 -0.903388
-101.751339 57.079684 -1.566027 162.385297 -10.054554 -1.035791 1.246510 12.474251 2.468993 0.118193 0.966727 0.079280 0.202252 1.647857 0.136290 1.502031 11.426580 1.079457 -1.715047 16.991960 -0.273416 -3.078409 -4.229390 0.082106 1.333474 7.898609 -0.212703 -11.887567 -23.178901 -14.063720 -136.641328 -66.579755 165.380842 -7.185047 -6.319466 -19.562839 -7.240139 6.796926 -2.870979 9.817346 -10.717975 7.468007 149.494324 -84.682578 -175.651087 -7.936274 10.044605 -2.610945 -11.546051 -62.233636 8.765844 -40.260220 69.652718 -45.021565 -1.730748 -5.236365 3.228600 -0.420175 0.692610 -0.812604 -8.872935 -64.839901 17.660609 45.922893 59.821675 41.805430 -17.287809 -9.771242 2.358639 0.392912 -1.131199 -0.872263
-101.685602 57.074759 -1.551043 162.393911 -9.968662 -0.998723 1.503032 12.501178 2.571565 0.137603 0.978985 0.083153 0.235242 1.667876 0.143040 1.724443 11.471781 1.138098 -1.800846 16.952557 -0.282472 -3.234478 -4.301246 0.095637 1.891818 7.669677 -0.043542 -10.873588 -24.127899 -14.586238 -134.209453 -68.079635 161.514144 -7.432132 -6.411989 -19.580026 -7.267719 6.611283 -2.889385 9.436667 -11.067495 7.586389 147.630505 -84.879718 -174.102703 -7.912431 10.003536 -2.670214 -11.918228 -62.297318 8.861367 -40.408674 69.613796 -45.097810 -1.298705 -5.220027 3.340399 -0.564785 0.690739 -0.945108 -9.453351 -64.857698 17.936722 46.246781 59.585081 42.282260 -17.418606 -9.771636 2.231265 0.549612 -1.142946 -0.834167
-101.613182 57.068045 -1.529146 162.404608 -9.852832 -1.006570 1.738917 12.496826 2.703238 0.158253 0.991970 0.085917 0.270393 1.689089 0.147921 1.956063 11.517901 1.183626 -1.881930 16.920305 -0.293346 -3.381164 -4.359857 0.104182 2.439173 7.384214 0.116761 -9.569134 -25.151723 -15.180094 -130.811421 -69.715611 156.456522 -7.653420 -6.467594 -19.530610 -7.317008 6.440935 -2.870783 9.137993 -11.378612 7.682501 145.212410 -85.044724 -172.026337 -7.886264 9.965554 -2.719785 -12.367942 -62.385490 9.052865 -40.556423 69.577758 -45.166779 -0.783961 -5.273090 3.497979 -0.806545 0.760166 -1.116593 -10.141763 -64.892543 18.335155 46.548674 59.356539 42.730110 -17.525495 -9.676362 2.098771 0.708192 -1.251783 -0.781758
-101.544598 57.060755 -1.512111 162.354146 -9.758376 -0.964633 2.004061 12.509869 2.775723 0.180460 1.005167 0.087045 0.308101 1.710674 0.149928 2.199244 11.562202 1.210367 -1.962261 16.899690 -0.298388 -3.528304 -4.396674 0.122944 2.947249 7.024655 0.274968 -7.881842 -26.162269 -15.898835 -126.349200 -71.418722 150.018198 -7.804351 -6.431858 -19.337235 -7.398541 6.295719 -2.799564 8.917703 -11.645667 7.761651 142.602348 -85.148328 -169.709396 -7.847400 9.940628 -2.808320 -12.653398 -62.466267 9.141641 -40.692898 69.548177 -45.217791 -0.381551 -5.242545 3.623798 -0.947007 0.758669 -1.233211 -10.685333 -64.908712 18.645959 46.828556 59.134849 43.145474 -17.580243 -9.673944 1.967961 0.851492 -1.263841 -0.723800
-101.473866 57.052385 -1.493969 162.281179 -9.662042 -0.920351 2.263821 12.513479 2.824338 0.203631 1.017496 0.086072 0.347358 1.730716 0.148444 2.447500 11.599512 1.213968 -2.041307 16.896490 -0.292931 -3.676522 -4.400916 0.160196 3.425244 6.579572 0.433231 -5.814942 -27.070099 -16.753251 -120.548473 -73.104691 141.890699 -7.891815 -6.309829 -18.936919 -7.499005 6.183661 -2.673384 8.770527 -11.861985 7.830899 139.455536 -85.221450 -166.929905 -7.811820 9.903666 -2.791568 -12.898345 -62.553609 9.224784 -40.831999 69.523284 -45.264753 -0.002073 -5.209059 3.750064 -1.075094 0.758117 -1.337172 -11.222355 -64.919934 18.981394 47.090529 58.920070 43.528581 -17.602619 -9.668618 1.831715 0.991452 -1.273258 -0.655935
-101.401902 57.042945 -1.474857 162.194831 -9.562771 -0.864928 2.502498 12.501720 2.833720 0.226678 1.027655 0.082745 0.386350 1.747108 0.143094 2.690224 11.624447 1.192044 -2.118140 16.917306 -0.274869 -3.824649 -4.360262 0.219467 3.889415 6.060527 0.592041 -3.447084 -27.848238 -17.702225 -112.766835 -74.611926 131.531830 -7.971643 -6.213594 -18.431730 -7.596210 6.113095 -2.496720 8.683439 -12.022848 7.892102 136.306266 -85.254060 -164.116104 -7.785170 9.862778 -2.770699 -13.097030 -62.650800 9.283785 -40.988626 69.500304 -45.324520 0.363277 -5.178417 3.876948 -1.194859 0.760581 -1.429713 -11.736709 -64.927629 19.318670 47.327632 58.713312 43.869952 -17.615215 -9.661243 1.687185 1.115628 -1.279289 -0.578596
-101.329384 57.032508 -1.454959 162.104782 -9.459470 -0.790832 2.709770 12.468306 2.792514 0.248715 1.034806 0.077062 0.423586 1.758584 0.133675 2.919661 11.634208 1.143836 -2.195158 16.965953 -0.242582 -3.977381 -4.267310 0.304234 4.339618 5.480093 0.761680 -0.847385 -28.496850 -18.722907 -102.450610 -75.603927 118.548453 -8.131811 -6.288150 -18.062699 -7.676858 6.090953 -2.276926 8.639572 -12.130296 7.940522 133.859189 -85.247759 -161.939148 -7.762205 9.841566 -2.773615 -13.246132 -62.760909 9.302163 -41.152712 69.484846 -45.388945 0.711058 -5.154738 3.998280 -1.307166 0.766856 -1.507886 -12.204687 -64.935114 19.625624 47.534717 58.512466 44.165118 -17.628802 -9.651861 1.536329 1.213039 -1.281812 -0.495715
